<svg id="Layer_1" data-name="Layer 1" xmlns="http://www.w3.org/2000/svg" viewBox="0 0 398.701 139.907">
  <defs>
    <style>
      .cls-1 {
        fill: #184c15;
      }

      .cls-2 {
        fill: #48a835;
      }
    </style>
  </defs>
  <title>almohanna-logo</title>
  <g>
    <polygon class="cls-1" points="386.536 24.391 301.431 24.391 277.115 0.075 386.536 0.075 386.536 24.391"/>
    <polygon class="cls-2" points="398.701 121.66 295.362 121.66 277.115 139.907 277.115 0.075 301.431 24.391 301.431 97.355 374.381 97.355 374.381 12.24 398.701 12.24 398.701 121.66"/>
    <g>
      <rect class="cls-2" x="316.422" y="39.631" width="42.969" height="18.247"/>
      <rect class="cls-2" x="316.422" y="63.961" width="42.969" height="18.247"/>
    </g>
    <g>
      <path class="cls-1" d="M196.42,23.4q-6.27,0-9.146-2.549-2.612-2.3-2.611-6.926a14.649,14.649,0,0,1,.829-5.034l4.518-.735a12.541,12.541,0,0,0-1.095,5.284q0,3.486,1.735,5,1.83,1.626,6.207,1.626h4.362V8.348h4.222V20.074h3.142V23.4H196.42Zm-2.267,6.379a2.22,2.22,0,1,1,3.111-.016,2.085,2.085,0,0,1-1.548.656A2.126,2.126,0,0,1,194.153,29.783Z"/>
      <path class="cls-1" d="M208.1,20.074h4.487V8.348h4.222V20.074h2.845V23.4H208.1v-3.33Zm1.83-14.79a2.11,2.11,0,0,1-.61-1.532,2.165,2.165,0,0,1,.61-1.548,2.022,2.022,0,0,1,1.5-.641,2.06,2.06,0,0,1,1.533.641,2.133,2.133,0,0,1,.61,1.548,2.147,2.147,0,0,1-.61,1.532,2.06,2.06,0,0,1-1.533.641A1.989,1.989,0,0,1,209.928,5.284Zm5.315,0a2.113,2.113,0,0,1-.61-1.532,2.168,2.168,0,0,1,.61-1.548,2.023,2.023,0,0,1,1.5-.641,1.989,1.989,0,0,1,1.5.641,2.13,2.13,0,0,1,.61,1.548,2.144,2.144,0,0,1-.61,1.532,2.021,2.021,0,0,1-1.5.641A1.991,1.991,0,0,1,215.243,5.284Z"/>
      <path class="cls-1" d="M219.168,20.074h9.506q-0.282-7.27-7.849-9.037v-3.1L233.52,0V4.19L225.7,8.9q6.644,3.018,7.067,11.179h2.6V23.4h-16.2v-3.33Z"/>
      <path class="cls-1" d="M234.88,23.4v-3.33h1.829a5.924,5.924,0,0,1,1.782.219q-1.781-1.3-1.782-4.581a7.518,7.518,0,0,1,2.064-5.41,8.3,8.3,0,0,1,6.254-2.361q7.237,0,7.239,7.364v8.1H234.88Zm13.258-7.583q0-4.55-3.424-4.55a3.52,3.52,0,0,0-2.814,1.22,4.644,4.644,0,0,0-1,3.1q0,4.487,4.8,4.487h2.439V15.822Z"/>
      <path class="cls-1" d="M0.132,45.05H5.9V71.338h4.378v4.549H0.132V45.05Z"/>
      <path class="cls-1" d="M9.614,71.338h6.129V55.322h5.766V71.338H25.8v4.549H9.614V71.338Zm6.877-20.543a3.068,3.068,0,1,1,2.135.854A2.93,2.93,0,0,1,16.491,50.794Z"/>
      <path class="cls-1" d="M25.139,75.886V71.338h3.63a8.746,8.746,0,0,1,2.05.213,3.624,3.624,0,0,1-1.132-2.8,6.772,6.772,0,0,1,2.221-5.275,8.841,8.841,0,0,1,6.171-2.071q4.165,0,6.236,2.605a9.967,9.967,0,0,1,1.815,6.321v1h4.421V70.8q0-6.833-2.926-10.058-2.99-3.267-9.46-3.267a29.868,29.868,0,0,0-9.354,1.58l-0.534-4.121A34.191,34.191,0,0,1,38.87,53.229q17.19,0,17.19,17.981v0.128h3.225v4.549H25.139Zm16.272-5.638q0-5.21-3.716-5.211-3.288,0-3.288,3.011,0,3.46,4.121,3.46h2.883v-1.26Z"/>
      <path class="cls-1" d="M75.174,75.886q-7.069,0-9.8-3.417-1.324,3.417-6.94,3.417H57.769V71.338a5.046,5.046,0,0,0,3.78-1.26q1.344-1.388,1.345-4.7a10.266,10.266,0,0,1,2.819-7.389,11.327,11.327,0,0,1,8.542-3.225q9.888,0,9.888,10.058v6.513h7.666V45.05h5.766V75.886h-22.4ZM78.5,65.529q0-6.214-4.677-6.214a4.809,4.809,0,0,0-3.844,1.665,6.34,6.34,0,0,0-1.367,4.228q0,6.13,6.556,6.129H78.5V65.529Z"/>
      <path class="cls-1" d="M105.113,45.05h5.765V75.886h-5.765V45.05Z"/>
      <path class="cls-1" d="M136.5,75.886q-11.723,0-11.724-10.143a10.794,10.794,0,0,1,2.776-7.645q3.117-3.332,8.819-3.331a25.638,25.638,0,0,1,9.14,1.516V71.338h4.271v4.549H136.5Zm3.417-15.781a9.707,9.707,0,0,0-4.165-.79,4.746,4.746,0,0,0-3.822,1.665,6.276,6.276,0,0,0-1.388,4.228q0,6.13,6.577,6.129h2.8V60.105Z"/>
      <path class="cls-1" d="M149.147,71.338h5.424V45.05h5.766V71.338h4.378v4.549H149.147V71.338Z"/>
      <path class="cls-1" d="M164.053,71.338h5.424V45.05h5.766V75.886h-11.19V71.338Z"/>
      <path class="cls-1" d="M182.674,45.05h5.765V75.886h-5.765V45.05Z"/>
      <path class="cls-1" d="M194.163,71.338h12.984q-0.385-9.716-10.315-12.236l1.388-4.826q6.94,1.837,10.443,5.765,3.694,4.165,4.079,11.3H215.6v4.549h-21.44V71.338Z"/>
      <path class="cls-1" d="M214.941,71.338h6.129V55.322h5.766V71.338h4.292v4.549H214.941V71.338Zm3.63,13.261a3.028,3.028,0,0,1,4.271-4.292,3.032,3.032,0,0,1-2.135,5.168A2.954,2.954,0,0,1,218.572,84.6Z"/>
      <path class="cls-1" d="M230.467,71.338h6.684q-3.4-2.007-3.4-6.513a9.411,9.411,0,0,1,2.819-7.069q3.1-2.989,8.628-2.989a17.05,17.05,0,0,1,5.424.833l-1,4.591a10.825,10.825,0,0,0-4.549-.918,5.622,5.622,0,0,0-3.139,10.208q2.583,1.858,7.56,1.858h3.417v4.549H230.467V71.338Z"/>
      <path class="cls-1" d="M13.623,120.406q-7.264,0-10.6-2.953Q0,114.791,0,109.428A16.975,16.975,0,0,1,.961,103.6l5.235-.851a14.547,14.547,0,0,0-1.268,6.123q0,4.041,2.011,5.8,2.12,1.885,7.192,1.884h2.536V103.2a37.028,37.028,0,0,1,7.446-.706q4.674,0,6.739,2.191,1.83,1.957,1.83,6v5.271H27.934V111.2a5.976,5.976,0,0,0-.906-3.768,3.99,3.99,0,0,0-3.206-1.087,13.887,13.887,0,0,0-2.446.217v13.84H13.623Zm-2.246,7.337a2.471,2.471,0,0,1-3.515.018,2.608,2.608,0,0,1,0-3.569,2.344,2.344,0,0,1,1.74-.742,2.377,2.377,0,0,1,1.775.725,2.475,2.475,0,0,1,.725,1.793A2.415,2.415,0,0,1,11.377,127.743Zm6.123,0a2.307,2.307,0,0,1-1.74.743,2.371,2.371,0,0,1-1.739-.725,2.608,2.608,0,0,1,0-3.569,2.429,2.429,0,0,1,3.479-.018A2.559,2.559,0,0,1,17.5,127.743Z"/>
      <path class="cls-1" d="M33.695,129.464l0.363-3.895a11.042,11.042,0,0,0,3.007.435,3.705,3.705,0,0,0,2.953-1.087,6.231,6.231,0,0,0,1.069-4.094V102.961h4.891v17.591q0,9.274-9.166,9.274A13.109,13.109,0,0,1,33.695,129.464Z"/>
      <path class="cls-1" d="M51.864,94.248h4.892v22.3h3.714v3.859H51.864V94.248Z"/>
      <path class="cls-1" d="M59.908,116.547h1.558a14.023,14.023,0,0,1,2.264.181,6.892,6.892,0,0,1-1.7-5,8.944,8.944,0,0,1,2.609-6.63,9.249,9.249,0,0,1,6.811-2.608,8.836,8.836,0,0,1,6.3,2.1q2.337,2.229,2.337,6.54,0,3.787-2.156,5.6a24.753,24.753,0,0,1,2.826-.181h1.975v3.859H59.908v-3.859Zm6.431-17.137a2.413,2.413,0,0,1-.725-1.775,2.475,2.475,0,0,1,.725-1.793,2.428,2.428,0,0,1,3.5,0,2.559,2.559,0,0,1,0,3.568,2.364,2.364,0,0,1-1.757.743A2.306,2.306,0,0,1,66.339,99.411Zm7.626,15.85a5.727,5.727,0,0,0,1.2-3.877q0-5.036-4.058-5.036a3.839,3.839,0,0,0-2.88,1.178,5.2,5.2,0,0,0-1.3,3.786q0,5.236,4.112,5.235A3.642,3.642,0,0,0,73.965,115.261ZM72.5,99.411a2.413,2.413,0,0,1-.725-1.775,2.475,2.475,0,0,1,.725-1.793,2.307,2.307,0,0,1,1.74-.743,2.344,2.344,0,0,1,1.739.743,2.607,2.607,0,0,1,0,3.568,2.344,2.344,0,0,1-1.739.743A2.307,2.307,0,0,1,72.5,99.411Z"/>
      <path class="cls-1" d="M82.153,116.547h1.3a28.271,28.271,0,0,0,8.641-1.141q-4.945-4.638-7.789-5.416l0.4-3.5q5.706-4.113,10.724-4.112a8.815,8.815,0,0,1,6,1.83,5.434,5.434,0,0,1,1.83,4.258q0,3.949-3.786,7.119a9.4,9.4,0,0,0,4.13.96h2.446v3.859H103.04a13.517,13.517,0,0,1-7.645-2.3,29.829,29.829,0,0,1-12.246,2.3h-1v-3.859ZM96.1,113.323a5.3,5.3,0,0,0,2.3-4.239,2.921,2.921,0,0,0-.87-2.21,3.69,3.69,0,0,0-2.663-.906q-2.3,0-5.634,2.228Q90.686,108.777,96.1,113.323Z"/>
      <path class="cls-1" d="M105.486,116.547h4.6v-22.3h4.891v26.158h-9.492v-3.859Z"/>
      <path class="cls-1" d="M121.283,94.248h4.891v26.158h-4.891V94.248Z"/>
      <path class="cls-1" d="M156.191,120.406q-9,0-9.8-7.192h-0.815a2.073,2.073,0,0,0-2.1,1.051,6.96,6.96,0,0,0-.072,3.659l1.92,12.119h-4.71l-1.884-11.756q-0.652-4.149.961-6.449,1.775-2.482,6.05-2.482h0.887a8.279,8.279,0,0,1,2.989-4.892,9.888,9.888,0,0,1,6.322-1.974q8.387,0,8.388,8.532v5.525h3.152v3.859H156.191Zm3.388-8.786q0-5.272-3.986-5.272a4.026,4.026,0,0,0-3.243,1.413,5.381,5.381,0,0,0-1.16,3.587q0,5.2,5.562,5.2h2.826V111.62Z"/>
      <path class="cls-1" d="M166.463,116.547h5.2V102.961h4.891v13.587h5.054v3.859H166.463v-3.859Zm4.927,11.2a2.384,2.384,0,0,1-1.775.743,2.333,2.333,0,0,1-1.739-.725,2.606,2.606,0,0,1,0-3.569,2.341,2.341,0,0,1,1.739-.742,2.413,2.413,0,0,1,1.775.725,2.508,2.508,0,0,1,.707,1.793A2.447,2.447,0,0,1,171.39,127.743Zm6.123,0a2.428,2.428,0,0,1-3.479.018,2.608,2.608,0,0,1,0-3.569,2.429,2.429,0,0,1,3.479-.018A2.607,2.607,0,0,1,177.513,127.743Z"/>
      <path class="cls-1" d="M181.028,116.547h5.2V102.961h4.891v13.587h5.054v3.859H181.028v-3.859Zm4.927,11.2a2.384,2.384,0,0,1-1.775.743,2.333,2.333,0,0,1-1.739-.725,2.606,2.606,0,0,1,0-3.569,2.341,2.341,0,0,1,1.739-.742,2.413,2.413,0,0,1,1.775.725,2.508,2.508,0,0,1,.707,1.793A2.447,2.447,0,0,1,185.955,127.743Zm6.123,0a2.428,2.428,0,0,1-3.479.018,2.608,2.608,0,0,1,0-3.569,2.429,2.429,0,0,1,3.479-.018A2.607,2.607,0,0,1,192.078,127.743Z"/>
      <path class="cls-1" d="M195.592,116.547h1.558a14.023,14.023,0,0,1,2.264.181,6.892,6.892,0,0,1-1.7-5,8.947,8.947,0,0,1,2.609-6.63,9.25,9.25,0,0,1,6.811-2.608,8.837,8.837,0,0,1,6.3,2.1q2.336,2.229,2.337,6.54,0,3.787-2.155,5.6a24.751,24.751,0,0,1,2.825-.181h1.975v3.859H195.592v-3.859Zm6.431-17.137a2.413,2.413,0,0,1-.725-1.775,2.475,2.475,0,0,1,.725-1.793,2.428,2.428,0,0,1,3.5,0,2.559,2.559,0,0,1,0,3.568,2.364,2.364,0,0,1-1.757.743A2.307,2.307,0,0,1,202.023,99.411Zm7.627,15.85a5.727,5.727,0,0,0,1.2-3.877q0-5.036-4.058-5.036a3.841,3.841,0,0,0-2.881,1.178,5.2,5.2,0,0,0-1.3,3.786q0,5.236,4.112,5.235A3.645,3.645,0,0,0,209.65,115.261Zm-1.468-15.85a2.413,2.413,0,0,1-.725-1.775,2.475,2.475,0,0,1,.725-1.793,2.306,2.306,0,0,1,1.739-.743,2.343,2.343,0,0,1,1.739.743,2.6,2.6,0,0,1,0,3.568,2.343,2.343,0,0,1-1.739.743A2.306,2.306,0,0,1,208.183,99.411Z"/>
      <path class="cls-1" d="M217.838,116.547h5.2V102.961h4.891v13.587h3.3v3.859H217.838v-3.859Zm2.119-17.137a2.445,2.445,0,0,1-.706-1.775,2.508,2.508,0,0,1,.706-1.793A2.343,2.343,0,0,1,221.7,95.1a2.386,2.386,0,0,1,1.776.743,2.607,2.607,0,0,1,0,3.568,2.386,2.386,0,0,1-1.776.743A2.307,2.307,0,0,1,219.957,99.411Zm6.159,0a2.446,2.446,0,0,1-.707-1.775,2.508,2.508,0,0,1,.707-1.793,2.343,2.343,0,0,1,1.739-.743,2.306,2.306,0,0,1,1.739.743,2.6,2.6,0,0,1,0,3.568,2.343,2.343,0,0,1-1.739.743A2.306,2.306,0,0,1,226.117,99.411Z"/>
      <path class="cls-1" d="M230.663,116.547h4.6v-22.3h4.892v22.3h3.714v3.859H230.663v-3.859Z"/>
      <path class="cls-1" d="M243.308,116.547h4.6v-22.3H252.8v26.158h-9.493v-3.859Z"/>
    </g>
  </g>
</svg>
